<svg viewBox="0 0 512 512" id="icons" xmlns="http://www.w3.org/2000/svg" fill="#ffffff" stroke="#ffffff"><g id="SVGRepo_bgCarrier" stroke-width="0"></g><g id="SVGRepo_tracerCarrier" stroke-linecap="round" stroke-linejoin="round"></g><g id="SVGRepo_iconCarrier"><defs><style>.cls-1{fill:none;stroke:#15f5ba;stroke-miterlimit:10;stroke-width:7px;}</style></defs><path class="cls-1" d="M304.66,340.23v83.74c0,4.26-3.29,7.06-6.15,5.25l-40.67-25.72c-1.17-.73-2.51-.73-3.68,0l-40.67,25.72c-2.86,1.81-6.15-.99-6.15-5.25v-83.74"></path><path class="cls-1" d="M393.43,215.8c0,11.96-9.14,22.56-12.09,33.59s-.52,25.15-6.3,35.14-19.08,14.78-27.3,23.01-12.87,21.44-23.01,27.3c-9.99,5.78-23.72,3.25-35.14,6.3-11.03,2.95-21.63,12.09-33.59,12.09s-22.56-9.14-33.59-12.09-25.15-.52-35.14-6.3-14.78-19.08-23.01-27.3-21.44-12.87-27.3-23.01-3.25-23.72-6.3-35.14-12.09-21.63-12.09-33.59,9.14-22.56,12.09-33.59,.52-25.15,6.3-35.14,19.08-14.78,27.3-23.01,12.87-21.44,23.01-27.3,23.72-3.25,35.14-6.3,21.63-12.09,33.59-12.09,22.56,9.14,33.59,12.09c11.41,3.05,25.15,.52,35.14,6.3s14.78,19.08,23.01,27.3,21.44,12.87,27.3,23.01,3.25,23.72,6.3,35.14,12.09,21.63,12.09,33.59Z"></path><circle class="cls-1" cx="256" cy="215.62" r="111.9"></circle><path class="cls-1" d="M283.54,225.67c-4.95-8.53-15.62-14.44-27.98-14.44s-23.02,5.91-27.98,14.44c-8.85,4.13-14.44,10.18-14.44,16.93,0,12.45,18.99,22.54,42.42,22.54s42.42-10.09,42.42-22.54c0-6.75-5.59-12.8-14.44-16.93Z"></path><ellipse class="cls-1" cx="271.15" cy="180.19" rx="16.7" ry="12.81" transform="translate(33.27 402.46) rotate(-76.66)"></ellipse><ellipse class="cls-1" cx="235.44" cy="180.19" rx="12.81" ry="16.7" transform="translate(-35.22 59.18) rotate(-13.34)"></ellipse><ellipse class="cls-1" cx="207.84" cy="207.58" rx="11.26" ry="14.68" transform="translate(-75.95 131.73) rotate(-30)"></ellipse><ellipse class="cls-1" cx="300.18" cy="203.79" rx="14.68" ry="11.26" transform="translate(-26.39 361.86) rotate(-60)"></ellipse></g></svg>