<svg width="24" height="24" viewBox="0 0 24 24" fill="none" xmlns="http://www.w3.org/2000/svg">
<path d="M17.5 13.9C17.5 13.7 17.3 13.5 17.1 13.5C17 13.5 16.9 13.5 16.8 13.6C15.5 14.7 13.8 15.3 12 15.3C10.3 15.3 8.59999 14.7 7.19999 13.6C7.09999 13.5 6.99999 13.5 6.89999 13.5C6.69999 13.5 6.49999 13.7 6.49999 13.9C6.49999 14.1 6.59999 14.2 6.69999 14.4C7.99999 16 9.99999 16.9 12 16.8C14 16.9 15.9 16 17.2 14.4C17.4 14.2 17.4 14.1 17.5 13.9ZM20.2 20.8C19.4 20.4 18.8 19.6 18.5 18.8C18.4 18.6 18.5 18.5 18.6 18.4C20.7 16.9 21.9 14.5 21.9 12C21.9 7.20002 17.4 3.40002 11.9 3.40002C6.39999 3.40002 1.89999 7.30002 1.89999 12C1.89999 16.8 6.39999 20.6 11.9 20.6C12.6 20.6 13.3 20.5 14 20.4C14.1 20.4 14.3 20.4 14.4 20.5C16 21.4 17.8 22 19.6 22C20 22.1 20.3 21.8 20.4 21.4V21.3C20.5 21.1 20.4 20.9 20.2 20.8ZM17.5 20V20.1C17.5 20.2 17.4 20.2 17.4 20.2C16.3 19.9 15.4 19.4 14.5 18.7C14.4 18.6 14.2 18.6 14 18.6C13.3 18.8 12.6 18.8 11.9 18.8C7.29999 18.8 3.59999 15.7 3.59999 11.9C3.59999 8.10002 7.29999 5.00002 11.9 5.00002C16.5 5.00002 20.2 8.10002 20.2 11.9C20.1 14.2 18.8 16.3 16.8 17.4C16.6 17.5 16.5 17.7 16.5 17.8C16.8 18.7 17.1 19.4 17.5 20Z" fill="#f0f3ff"/>
</svg>
